HIERARCHY
ROOT Hips
{
	OFFSET 0.000000 0.000000 0.000000
	CHANNELS 6 Xposition Yposition Zposition Zrotation Yrotation Xrotation 
	JOINT LHipJoint
	{
		OFFSET 0.000000 0.000000 0.000000
		CHANNELS 3 Zrotation Yrotation Xrotation
		JOINT LeftUpLeg
		{
			OFFSET 1.363060 -1.794630 0.839290
			CHANNELS 3 Zrotation Yrotation Xrotation
			JOINT LeftLeg
			{
				OFFSET 2.448110 -6.726130 0.000000
				CHANNELS 3 Zrotation Yrotation Xrotation
				JOINT LeftFoot
				{
					OFFSET 2.562200 -7.039590 0.000000
					CHANNELS 3 Zrotation Yrotation Xrotation
					JOINT LeftToeBase
					{
						OFFSET 0.157640 -0.433110 2.322550
						CHANNELS 3 Zrotation Yrotation Xrotation
						End Site
						{
							OFFSET 0.000000 0.000000 0.000000
						}
					}
				}
			}
		}
	}
	JOINT RHipJoint
	{
		OFFSET 0.000000 0.000000 0.000000
		CHANNELS 3 Zrotation Yrotation Xrotation
		JOINT RightUpLeg
		{
			OFFSET -1.305520 -1.794630 0.839290
			CHANNELS 3 Zrotation Yrotation Xrotation
			JOINT RightLeg
			{
				OFFSET -2.542530 -6.985550 0.000000
				CHANNELS 3 Zrotation Yrotation Xrotation
				JOINT RightFoot
				{
					OFFSET -2.568260 -7.056230 0.000000
					CHANNELS 3 Zrotation Yrotation Xrotation
					JOINT RightToeBase
					{
						OFFSET -0.164730 -0.452590 2.363150
						CHANNELS 3 Zrotation Yrotation Xrotation
						End Site
						{
							OFFSET 0.000000 0.000000 0.000000
						}
					}
				}
			}
		}
	}
	JOINT LowerBack
	{
		OFFSET 0.000000 0.000000 0.000000
		CHANNELS 3 Zrotation Yrotation Xrotation
		JOINT Spine
		{
			OFFSET 0.028270 2.035590 -0.193380
			CHANNELS 3 Zrotation Yrotation Xrotation
			JOINT Spine1
			{
				OFFSET 0.056720 2.048850 -0.042750
				CHANNELS 3 Zrotation Yrotation Xrotation
				JOINT Neck
				{
					OFFSET 0.000000 0.000000 0.000000
					CHANNELS 3 Zrotation Yrotation Xrotation
					JOINT Neck1
					{
						OFFSET -0.054170 1.746240 0.172020
						CHANNELS 3 Zrotation Yrotation Xrotation
						JOINT Head
						{
							OFFSET 0.104070 1.761360 -0.123970
							CHANNELS 3 Zrotation Yrotation Xrotation
							End Site
							{
								OFFSET 0.000000 0.000000 0.000000
							}
						}
					}
				}
				JOINT LeftShoulder
				{
					OFFSET 0.000000 0.000000 0.000000
					CHANNELS 3 Zrotation Yrotation Xrotation
					JOINT LeftArm
					{
						OFFSET 3.362410 1.200890 -0.311210
						CHANNELS 3 Zrotation Yrotation Xrotation
						JOINT LeftForeArm
						{
							OFFSET 4.983000 -0.000000 -0.000000
							CHANNELS 3 Zrotation Yrotation Xrotation
							JOINT LeftHand
							{
								OFFSET 3.483560 -0.000000 -0.000000
								CHANNELS 3 Zrotation Yrotation Xrotation
								JOINT LeftFingerBase
								{
									OFFSET 0.000000 0.000000 0.000000
									CHANNELS 3 Zrotation Yrotation Xrotation
									JOINT LeftHandIndex1
									{
										OFFSET 0.715260 -0.000000 -0.000000
										CHANNELS 3 Zrotation Yrotation Xrotation
										End Site
										{
											OFFSET 0.000000 0.000000 0.000000
										}
									}
								}
								JOINT LThumb
								{
									OFFSET 0.000000 0.000000 0.000000
									CHANNELS 3 Zrotation Yrotation Xrotation
									End Site
									{
										OFFSET 0.000000 0.000000 0.000000
									}
								}
							}
						}
					}
				}
				JOINT RightShoulder
				{
					OFFSET 0.000000 0.000000 0.000000
					CHANNELS 3 Zrotation Yrotation Xrotation
					JOINT RightArm
					{
						OFFSET -3.136600 1.374050 -0.404650
						CHANNELS 3 Zrotation Yrotation Xrotation
						JOINT RightForeArm
						{
							OFFSET -5.241900 -0.000000 -0.000000
							CHANNELS 3 Zrotation Yrotation Xrotation
							JOINT RightHand
							{
								OFFSET -3.444170 -0.000000 -0.000000
								CHANNELS 3 Zrotation Yrotation Xrotation
								JOINT RightFingerBase
								{
									OFFSET 0.000000 0.000000 0.000000
									CHANNELS 3 Zrotation Yrotation Xrotation
									JOINT RightHandIndex1
									{
										OFFSET -0.622530 -0.000000 -0.000000
										CHANNELS 3 Zrotation Yrotation Xrotation
										End Site
										{
											OFFSET 0.000000 0.000000 0.000000
										}
									}
								}
								JOINT RThumb
								{
									OFFSET 0.000000 0.000000 0.000000
									CHANNELS 3 Zrotation Yrotation Xrotation
									End Site
									{
										OFFSET 0.000000 0.000000 0.000000
									}
								}
							}
						}
					}
				}
			}
		}
	}
}
MOTION
Frames: 4
Frame Time: 0.008333
1.956631 17.396509 0.902518 2.110165 -80.265745 9.512541 -10.991974 1.789545 1.842984 -5.800033 12.855776 -19.166951 -2.524784 -1.148008 -1.393614 0.438976 4.923112 7.357800 1.557800 -0.000000 -43.876600 9.862145 -1.734675 0.949518 5.767936 -11.460622 -17.218001 1.841378 0.641439 6.640298 -2.388184 -13.723193 2.373130 -3.543300 0.000000 -56.895800 -4.045206 -1.111380 -3.655203 -1.254353 -0.811081 -4.658039 -5.204991 -0.823182 -6.234966 6.821986 0.522001 5.988189 -1.858128 -0.326916 3.756289 0.000000 0.000000 0.000000 9.241614 2.062916 -4.875519 -83.408504 -52.588180 15.333730 177.151756 -65.532451 179.716468 13.487022 -11.270660 -1.488706 0.000541 1.246048 -0.000000 0.000000 0.000000 0.000000 0.000000 0.000000 0.000000 -2.266330 0.819364 -6.375029 81.191819 54.366826 5.788956 -174.760904 55.679517 179.615220 -19.839290 19.673477 -3.743241 0.101889 -1.320090 -0.000000 0.000000 0.000000 0.000000 0.000000 0.000000 0.000000 
1.955685 17.393411 0.864836 2.341109 -80.193477 9.607851 -10.971100 1.740162 1.846550 -5.820684 12.827730 -19.761871 -2.541342 -1.138526 -1.001998 0.440681 4.897720 7.277030 1.548300 0.000000 -44.136700 9.844424 -1.711743 0.991616 5.933595 -11.272195 -17.964285 1.857307 0.590846 7.362738 -2.398186 -13.586988 2.007221 -3.429600 -0.000000 -56.420000 -4.239632 -1.099128 -3.664380 -1.289171 -0.782580 -4.639011 -5.199535 -0.795442 -6.145306 6.770305 0.292048 5.725982 -1.836055 -0.321757 3.680786 0.000000 0.000000 0.000000 8.932707 2.269842 -4.702443 -82.791707 -51.804948 14.925812 177.206056 -65.428092 179.715266 13.762827 -11.110052 -1.500622 -0.015495 1.239180 -0.000000 0.000000 0.000000 0.000000 0.000000 0.000000 0.000000 -2.586520 0.654635 -6.369745 81.525998 54.222913 5.888709 -174.738684 55.456393 179.612768 -19.987676 19.699617 -3.778467 0.108175 -1.325793 -0.000000 0.000000 0.000000 0.000000 0.000000 0.000000 0.000000 
1.954987 17.390038 0.825891 2.669275 -80.287285 9.605815 -10.954860 1.685898 1.833202 -5.832998 12.842187 -20.320023 -2.552822 -1.129139 -0.599405 0.453936 4.968738 7.174762 1.560800 -0.000000 -44.385000 9.823963 -1.693393 1.050795 6.075754 -10.999499 -18.709859 1.875942 0.539920 8.038170 -2.391693 -13.369998 1.669877 -3.305900 0.000000 -55.978201 -4.453830 -1.057876 -3.675931 -1.332535 -0.724015 -4.622039 -5.201025 -0.737496 -6.060547 6.687460 0.049535 5.454407 -1.824700 -0.316959 3.601835 0.000000 0.000000 0.000000 8.567064 2.402219 -4.497723 -81.931089 -50.889315 14.347860 177.276395 -65.186286 179.715831 13.969882 -10.893364 -1.497143 -0.032428 1.231004 -0.000000 0.000000 0.000000 0.000000 0.000000 0.000000 0.000000 -2.893230 0.496813 -6.354637 81.904707 54.094466 6.051134 -174.725329 55.265041 179.610454 -20.125466 19.730331 -3.812684 0.114166 -1.331507 -0.000000 0.000000 0.000000 0.000000 0.000000 0.000000 0.000000 
1.953824 17.386469 0.786068 3.107902 -80.576653 9.498163 -10.944910 1.629163 1.802302 -5.843168 12.932769 -20.842931 -2.561760 -1.121364 -0.200607 0.477891 5.130173 7.059358 1.594300 -0.000000 -44.618300 9.799356 -1.683425 1.138834 6.194789 -10.617851 -19.453353 1.897144 0.492217 8.643003 -2.368381 -13.075241 1.370669 -3.177100 -0.000000 -55.580700 -4.688810 -0.985908 -3.706734 -1.385214 -0.633895 -4.610556 -5.211511 -0.647958 -5.980800 6.575708 -0.204303 5.179700 -1.829009 -0.312884 3.521222 0.000000 0.000000 0.000000 8.150081 2.443581 -4.260292 -80.837362 -49.799582 13.601582 177.370167 -64.790290 179.718714 14.069158 -10.631324 -1.475558 -0.049710 1.221963 -0.000000 0.000000 0.000000 0.000000 0.000000 0.000000 0.000000 -3.160528 0.347522 -6.330012 82.335816 53.992457 6.303751 -174.727060 55.125305 179.608434 -20.252308 19.760323 -3.844587 0.119972 -1.336830 -0.000000 0.000000 0.000000 0.000000 0.000000 0.000000 0.000000 
